<svg width="405" height="433" viewBox="0 0 405 433" fill="none" xmlns="http://www.w3.org/2000/svg">
<path d="M179.688 197.759C179.688 197.759 143.929 194.304 137.4 310.517L223.746 311.222C223.746 311.222 213.405 197.025 179.688 197.759Z" fill="#F9B141"/>
<path d="M209.91 182.122C209.91 186.239 206.631 189.577 202.589 189.577C200.881 189.584 199.222 188.971 197.888 187.84C195.198 196.068 187.575 202.001 178.587 202.001C170.1 202.001 162.826 196.707 159.78 189.183C159.023 189.446 158.231 189.579 157.435 189.577C153.392 189.577 150.114 186.239 150.114 182.122C150.114 178.005 153.392 174.667 157.435 174.667C158.043 174.666 158.649 174.743 159.24 174.897C161.884 166.59 169.546 160.584 178.587 160.584C188.053 160.584 196.016 167.173 198.281 176.094C199.544 175.159 201.048 174.661 202.589 174.667C206.631 174.667 209.91 178.003 209.91 182.122Z" fill="#FA5144"/>
<path d="M156.578 178.752L159.811 180.823L157.04 183.721" stroke="#464646" stroke-width="2" stroke-miterlimit="10"/>
<path d="M205.842 178.808L199.333 182.122L205.435 183.363" stroke="#464646" stroke-width="2" stroke-miterlimit="10"/>
<path d="M192.419 178.564C192.419 178.564 188.351 193.888 172.894 190.574" stroke="#464646" stroke-width="2" stroke-miterlimit="10"/>
<path d="M223.035 175.683C223.035 175.683 214.652 175.928 215.596 175.928C216.54 175.928 223.035 177.555 223.035 177.555C223.035 177.555 219.375 183.192 219.837 182.817C220.299 182.443 225.147 177.56 225.505 177.81C225.863 178.059 230.462 177.685 230.462 177.685L224.921 176.31L225.632 171.052L223.035 175.683Z" fill="#FA8E5D"/>
<path d="M138.536 165.159C138.536 165.159 130.153 165.403 131.097 165.403C132.041 165.403 138.536 167.031 138.536 167.031C138.536 167.031 134.876 172.668 135.338 172.293C135.8 171.919 140.648 167.036 141.006 167.285C141.364 167.535 145.963 167.161 145.963 167.161L140.422 165.785L141.133 160.528L138.536 165.159Z" fill="#FA8E5D"/>
<path d="M298.761 212.64C298.761 212.64 290.378 212.885 291.322 212.885C292.266 212.885 298.761 214.513 298.761 214.513C298.761 214.513 295.099 220.142 295.572 219.77C296.046 219.398 300.882 214.513 301.24 214.762C301.598 215.012 306.197 214.638 306.197 214.638L300.656 213.262L301.358 208.01L298.761 212.64Z" fill="#FA8E5D"/>
<path d="M87.5129 214.354C87.5129 214.354 79.1299 214.599 80.0742 214.599C81.0184 214.599 87.5129 216.226 87.5129 216.226C87.5129 216.226 83.8535 221.863 84.3153 221.488C84.777 221.114 89.6253 216.231 89.9832 216.481C90.341 216.73 94.94 216.356 94.94 216.356L89.3991 214.98L90.1102 209.723L87.5129 214.354Z" fill="#FA8E5D"/>
<path d="M225.219 194.304C225.219 194.304 214.744 194.482 215.926 194.482C217.108 194.482 225.219 195.635 225.219 195.635C225.219 195.635 220.645 199.629 221.236 199.363C221.827 199.096 227.876 195.635 228.317 195.814C228.758 195.992 234.514 195.723 234.514 195.723L227.587 194.744L228.472 191.017L225.219 194.304Z" fill="#FA8E5D"/>
<path d="M179.781 173.133L203.099 156L207.486 162.119L186.245 177.783" stroke="#464646" stroke-width="2" stroke-miterlimit="10"/>
<path d="M169.392 174.356L174.24 171.909" stroke="#464646" stroke-width="2" stroke-miterlimit="10"/>
<path d="M179.55 167.748L185.091 165.79" stroke="#464646" stroke-width="2" stroke-miterlimit="10"/>
<path d="M232.766 260.387C232.762 265.961 231.592 271.466 229.34 276.503C227.088 281.54 223.81 285.986 219.743 289.518C215.675 293.051 210.919 295.583 205.817 296.932C200.715 298.281 195.394 298.414 190.237 297.32C185.081 296.227 180.218 293.935 175.998 290.609C171.778 287.283 168.307 283.006 165.834 278.086C163.361 273.166 161.949 267.726 161.698 262.158C161.447 256.59 162.364 251.032 164.384 245.885L157.271 242.52L171.208 234.688C176.076 229.154 182.402 225.302 189.363 223.631C196.324 221.961 203.598 222.55 210.239 225.323C216.88 228.095 222.58 232.922 226.598 239.176C230.615 245.43 232.765 252.821 232.766 260.387V260.387Z" fill="#EF83AF"/>
<path d="M192.08 245.099C192.772 243.854 190.097 240.822 186.104 238.327C182.111 235.831 178.313 234.818 177.621 236.063C176.929 237.307 179.604 240.339 183.597 242.835C187.59 245.33 191.388 246.344 192.08 245.099Z" fill="white"/>
<path d="M187.183 242.876C188.169 241.837 188.096 240.065 187.02 238.917C185.945 237.77 184.273 237.681 183.287 238.72C182.302 239.758 182.375 241.53 183.45 242.678C184.526 243.826 186.198 243.914 187.183 242.876Z" fill="#464646"/>
<path d="M185.845 252.684C186.537 251.439 183.862 248.407 179.869 245.912C175.876 243.417 172.078 242.403 171.386 243.648C170.694 244.893 173.37 247.925 177.362 250.42C181.355 252.915 185.153 253.929 185.845 252.684Z" fill="white"/>
<path d="M180.95 250.463C181.936 249.425 181.863 247.652 180.787 246.505C179.711 245.357 178.04 245.268 177.054 246.307C176.068 247.346 176.141 249.118 177.217 250.266C178.293 251.413 179.964 251.502 180.95 250.463Z" fill="#464646"/>
<path d="M212.585 245.344L220.53 226.122C220.53 226.122 203.445 218.045 188.438 223.185C188.438 223.185 187.767 245.083 210.332 246.392C211.064 246.022 211.814 245.668 212.585 245.344Z" fill="#464646"/>
<path d="M211.064 221.226L193.518 219.513L194.441 205.562L200.213 215.107L204.138 202.625L206.216 214.618L216.374 202.38L211.064 221.226Z" fill="#FA5144"/>
<path d="M154.962 313.008L262.779 312.274L262.548 161.507L241.791 190.728C243.657 194.25 244.515 198.273 244.26 202.303C244.006 206.334 242.65 210.199 240.358 213.427C238.065 216.654 234.937 219.104 231.353 220.478C227.769 221.852 223.886 222.09 220.177 221.163L154.962 313.008Z" fill="#FA5144"/>
<path d="M285.629 161.507H262.542V312.029H285.629V161.507Z" fill="#2F4BA7"/>
<path d="M262.542 161.507V172.411L285.629 189.404L285.636 189.409V178.71L285.629 178.706L262.542 161.507Z" fill="#464646"/>
<path d="M262.542 175.441V180.394L285.629 197.065V192.402L262.542 175.441Z" fill="#464646"/>
<path d="M262.542 190.089V204.522L285.629 218.6V206.683L262.542 190.089Z" fill="#464646"/>
<path d="M262.542 206.649V211.544L285.629 225.561V220.666L262.542 206.649Z" fill="#464646"/>
<path d="M262.542 275.021V312.029H285.629V286.382L262.542 275.021Z" fill="#464646"/>
<path d="M289.561 235.422C289.561 235.422 262.585 230.882 269.821 237.747C272.014 239.827 288.644 239.512 288.752 239.46C288.752 239.46 265.088 242.52 271.553 246.436C278.017 250.352 288.522 246.803 288.522 246.803C288.522 246.803 269.244 255.491 273.169 256.47C280.023 258.184 288.175 257.939 288.175 257.939C288.175 257.939 271.899 261.733 273.861 263.079C279.945 267.239 289.907 264.18 289.907 264.18C289.907 264.18 304.105 246.68 289.561 235.422Z" fill="#FA5144"/>
<path d="M162.819 184.514H117.312V312.798H162.819V184.514Z" fill="#464646"/>
<path d="M146.701 184.514H101.194V312.798H146.701V184.514Z" fill="#F9B141"/>
<path d="M89.8101 245.572C91.1953 252.075 96.4638 256.83 102.723 257.477C110.649 258.292 122.825 258.891 117.803 254.131C115.61 252.05 98.9826 252.366 98.8718 252.418C98.8718 252.418 122.536 249.358 116.072 245.442C109.607 241.526 99.1027 245.075 99.1027 245.075C99.1027 245.075 118.38 236.386 114.456 235.407C107.601 233.694 99.449 233.939 99.449 233.939C99.449 233.939 115.725 230.145 113.763 228.799C110.893 226.829 107.156 226.474 104.013 226.648C98.2993 226.961 93.1116 230.49 90.7636 236.022C89.466 239.008 89.1309 242.364 89.8101 245.572Z" fill="#FA5144"/>
<path d="M100.938 288.778C100.938 288.778 139.861 289.189 134.253 312.724H101.169L100.938 288.778Z" fill="#2F4BA7"/>
<path d="M119.733 304.172C123.524 301.345 125.961 298.095 125.177 296.913C124.392 295.731 120.684 297.065 116.893 299.893C113.102 302.72 110.665 305.97 111.45 307.152C112.234 308.334 115.943 307 119.733 304.172Z" fill="white"/>
<path d="M119.52 304.231C120.95 303.665 121.715 302.087 121.229 300.707C120.743 299.326 119.189 298.666 117.76 299.233C116.33 299.799 115.565 301.376 116.051 302.757C116.537 304.137 118.091 304.797 119.52 304.231Z" fill="#464646"/>
<path d="M131.875 310.561L152.653 296.12L135.569 300.526L141.11 281.435L126.281 296.233L131.875 310.561Z" fill="#464646"/>
<path d="M103.94 291.96C103.94 291.96 101.169 271.156 105.786 278.009C110.404 284.862 108.788 291.47 108.788 291.47C108.788 291.47 110.404 271.156 113.405 278.743C116.407 286.33 113.867 292.449 113.867 292.449C113.867 292.449 120.101 270.177 120.562 280.946C121.024 291.715 118.715 293.918 118.715 293.918C118.715 293.918 123.794 277.275 124.949 283.393C126.103 289.512 121.255 295.142 121.255 295.142C121.255 295.142 106.941 298.079 103.94 291.96Z" fill="#464646"/>
<path d="M251.697 259.163C254.758 259.163 257.238 256.533 257.238 253.289C257.238 250.045 254.758 247.415 251.697 247.415C248.637 247.415 246.156 250.045 246.156 253.289C246.156 256.533 248.637 259.163 251.697 259.163Z" fill="#464646"/>
<path d="M251.928 255.491C251.928 255.491 238.307 268.219 244.079 269.442C249.851 270.666 252.39 264.547 246.849 263.813C241.308 263.079 232.073 274.093 238.076 278.009C244.079 281.925 247.311 276.051 241.308 275.316C235.306 274.582 227.918 287.309 233.459 290.736C239 294.162 241.77 284.372 236.46 283.883C231.15 283.393 221.252 312.609 221.252 312.609" stroke="#464646" stroke-width="2" stroke-miterlimit="10"/>
<path d="M218.611 255.095C218.611 255.095 211.544 266.148 218.083 266.525C224.621 266.902 222.146 260.717 218.611 263.152C215.077 265.588 207.917 277.887 214.589 279.7C221.262 281.514 222.852 273.092 218.083 274.954C213.313 276.817 210.66 298.184 217.905 298.94C225.15 299.696 227.802 289.395 220.906 293.881C214.01 298.367 213.994 309.288 215.596 312.825" stroke="#464646" stroke-width="2" stroke-miterlimit="10"/>
<path d="M218.436 258.093C220.778 258.093 222.677 256.08 222.677 253.597C222.677 251.114 220.778 249.101 218.436 249.101C216.093 249.101 214.195 251.114 214.195 253.597C214.195 256.08 216.093 258.093 218.436 258.093Z" fill="#464646"/>
<path d="M127.059 372.657C120.106 362.69 111.407 351.669 100.899 345.771C78.3067 333.096 71.4976 366.548 75.0194 383.013C76.3884 389.253 78.9228 395.173 82.4735 400.426C86.0242 405.679 90.5196 410.159 95.6954 413.602C96.9431 414.422 98.2972 415.198 99.7695 415.195C103.544 415.21 105.331 410.359 105.459 406.389C105.915 392.18 97.6629 378.62 86.7809 369.863C76.9847 361.97 53.9051 348.406 41.1192 351.669C37.4453 352.603 34.5173 355.415 31.989 358.328C26.0296 365.205 21.3456 373.205 18.1688 381.931C16.4389 386.684 15.1674 391.941 16.5236 396.898C17.9981 402.302 22.5644 406.525 27.708 408.055C34.1504 409.97 42.384 408.591 45.9448 402.33C50.6536 394.042 47.9026 380.682 46.2365 371.782C42.9056 354.065 36.9381 336.56 30.1653 319.898" stroke="#2F4BA7" stroke-width="2" stroke-miterlimit="10"/>
<path d="M355.526 136.859C359.901 125.517 364.199 112.073 363.37 99.6591C361.583 72.9716 330.779 84.1524 319.292 95.786C314.958 100.225 311.505 105.539 309.138 111.416C306.771 117.292 305.538 123.612 305.509 130.004C305.51 131.54 305.604 133.148 306.393 134.46C308.4 137.834 313.294 136.925 316.586 134.992C328.368 128.07 334.966 113.716 336.259 99.4932C337.43 86.6853 336.104 59.1043 326.618 49.3838C323.896 46.5886 320.047 45.4273 316.33 44.6749C307.559 42.907 298.559 42.8554 289.775 44.5228C284.991 45.4314 280.042 47.009 276.742 50.775C273.143 54.8775 272.154 61.1285 273.662 66.5054C275.552 73.2388 281.074 79.8714 288.062 79.8175C297.309 79.7427 306.687 70.3983 313.023 64.3214C325.628 52.2126 336.651 37.8616 346.56 23.227" stroke="#2F4BA7" stroke-width="2" stroke-miterlimit="10"/>
<path d="M290.674 102.579C290.674 102.579 278.764 102.927 280.105 102.927C281.447 102.927 290.674 105.239 290.674 105.239C290.674 105.239 285.475 113.248 286.131 112.716C286.787 112.184 293.675 105.246 294.184 105.601C294.692 105.956 301.226 105.424 301.226 105.424L293.354 103.469L294.364 96L290.674 102.579Z" fill="#FA8E5D"/>
<path d="M66.9012 340.83C66.9012 340.83 55.3903 343.908 56.6959 343.599C58.0015 343.291 67.5131 343.419 67.5131 343.419C67.5131 343.419 64.2955 352.408 64.8116 351.74C65.3276 351.071 70.4356 342.735 71.0119 342.963C71.5883 343.192 77.8248 341.171 77.8248 341.171L69.714 341.08L68.9791 333.578L66.9012 340.83Z" fill="#FA8E5D"/>
</svg>
