<svg width="393" height="276" viewBox="0 0 393 276" fill="none" xmlns="http://www.w3.org/2000/svg">
<path d="M278.688 110.759C278.688 110.759 242.929 107.304 236.4 223.517L322.746 224.222C322.746 224.222 312.405 110.025 278.688 110.759Z" fill="#F9B141"/>
<path d="M308.909 95.1222C308.909 99.2389 305.631 102.577 301.589 102.577C299.88 102.584 298.222 101.971 296.888 100.84C294.198 109.068 286.575 115.001 277.587 115.001C269.1 115.001 261.825 109.707 258.78 102.183C258.023 102.446 257.231 102.579 256.435 102.577C252.392 102.577 249.114 99.2389 249.114 95.1222C249.114 91.0054 252.392 87.667 256.435 87.667C257.043 87.6657 257.649 87.743 258.24 87.8971C260.883 79.5902 268.546 73.584 277.587 73.584C287.053 73.584 295.016 80.1727 297.28 89.0939C298.544 88.1592 300.048 87.6609 301.589 87.667C305.631 87.667 308.909 91.003 308.909 95.1222Z" fill="#FA5144"/>
<path d="M255.578 91.7522L258.81 93.8228L256.04 96.7207" stroke="#464646" stroke-width="2" stroke-miterlimit="10"/>
<path d="M304.842 91.8083L298.333 95.1223L304.435 96.3632" stroke="#464646" stroke-width="2" stroke-miterlimit="10"/>
<path d="M291.419 91.5637C291.419 91.5637 287.351 106.888 271.894 103.574" stroke="#464646" stroke-width="2" stroke-miterlimit="10"/>
<path d="M322.035 88.683C322.035 88.683 313.652 88.9277 314.596 88.9277C315.54 88.9277 322.035 90.5553 322.035 90.5553C322.035 90.5553 318.375 96.1919 318.837 95.8175C319.299 95.443 324.147 90.5602 324.505 90.8098C324.863 91.0595 329.462 90.685 329.462 90.685L323.921 89.3095L324.632 84.0522L322.035 88.683Z" fill="#FA8E5D"/>
<path d="M237.536 78.1585C237.536 78.1585 229.153 78.4033 230.097 78.4033C231.041 78.4033 237.536 80.0309 237.536 80.0309C237.536 80.0309 233.876 85.6675 234.338 85.2931C234.8 84.9186 239.648 80.0358 240.006 80.2854C240.364 80.5351 244.963 80.1606 244.963 80.1606L239.422 78.7851L240.133 73.5278L237.536 78.1585Z" fill="#FA8E5D"/>
<path d="M397.761 125.64C397.761 125.64 389.378 125.885 390.322 125.885C391.266 125.885 397.761 127.513 397.761 127.513C397.761 127.513 394.099 133.142 394.572 132.77C395.046 132.398 399.882 127.513 400.24 127.762C400.598 128.012 405.197 127.638 405.197 127.638L399.656 126.262L400.358 121.01L397.761 125.64Z" fill="#FA8E5D"/>
<path d="M186.513 127.354C186.513 127.354 178.13 127.599 179.074 127.599C180.018 127.599 186.513 129.226 186.513 129.226C186.513 129.226 182.853 134.863 183.315 134.488C183.777 134.114 188.625 129.231 188.983 129.481C189.341 129.73 193.94 129.356 193.94 129.356L188.399 127.98L189.11 122.723L186.513 127.354Z" fill="#FA8E5D"/>
<path d="M324.219 107.304C324.219 107.304 313.744 107.482 314.926 107.482C316.108 107.482 324.219 108.635 324.219 108.635C324.219 108.635 319.645 112.629 320.236 112.363C320.827 112.096 326.876 108.635 327.317 108.814C327.758 108.992 333.514 108.723 333.514 108.723L326.587 107.744L327.472 104.017L324.219 107.304Z" fill="#FA8E5D"/>
<path d="M278.781 86.1326L302.099 69L306.485 75.1188L285.245 90.7829" stroke="#464646" stroke-width="2" stroke-miterlimit="10"/>
<path d="M268.391 87.3565L273.24 84.9089" stroke="#464646" stroke-width="2" stroke-miterlimit="10"/>
<path d="M278.55 80.7478L284.091 78.7898" stroke="#464646" stroke-width="2" stroke-miterlimit="10"/>
<path d="M331.766 173.387C331.762 178.961 330.592 184.466 328.34 189.503C326.088 194.54 322.81 198.986 318.743 202.518C314.675 206.051 309.919 208.583 304.817 209.932C299.715 211.281 294.394 211.414 289.237 210.32C284.081 209.227 279.218 206.935 274.998 203.609C270.778 200.283 267.307 196.006 264.834 191.086C262.361 186.166 260.949 180.726 260.698 175.158C260.447 169.59 261.364 164.032 263.384 158.885L256.271 155.52L270.208 147.688C275.076 142.154 281.402 138.302 288.363 136.631C295.324 134.961 302.598 135.55 309.239 138.323C315.88 141.095 321.58 145.922 325.598 152.176C329.615 158.43 331.765 165.821 331.766 173.387Z" fill="#EF83AF"/>
<path d="M291.08 158.099C291.772 156.854 289.097 153.822 285.104 151.327C281.111 148.831 277.313 147.818 276.621 149.063C275.929 150.307 278.604 153.339 282.597 155.835C286.59 158.33 290.388 159.344 291.08 158.099Z" fill="white"/>
<path d="M286.183 155.876C287.169 154.837 287.096 153.065 286.02 151.917C284.945 150.77 283.273 150.681 282.287 151.72C281.302 152.758 281.374 154.53 282.45 155.678C283.526 156.826 285.197 156.914 286.183 155.876Z" fill="#464646"/>
<path d="M284.845 165.684C285.537 164.439 282.862 161.407 278.869 158.912C274.876 156.417 271.078 155.403 270.386 156.648C269.694 157.893 272.369 160.925 276.362 163.42C280.355 165.915 284.153 166.929 284.845 165.684Z" fill="white"/>
<path d="M279.95 163.463C280.935 162.425 280.863 160.652 279.787 159.505C278.711 158.357 277.04 158.268 276.054 159.307C275.068 160.346 275.141 162.118 276.217 163.266C277.292 164.413 278.964 164.502 279.95 163.463Z" fill="#464646"/>
<path d="M311.585 158.344L319.529 139.122C319.529 139.122 302.445 131.045 287.438 136.185C287.438 136.185 286.766 158.083 309.332 159.392C310.064 159.022 310.814 158.668 311.585 158.344Z" fill="#464646"/>
<path d="M310.064 134.226L292.518 132.513L293.441 118.562L299.213 128.107L303.138 115.625L305.216 127.618L315.374 115.38L310.064 134.226Z" fill="#FA5144"/>
<path d="M253.962 226.008L361.779 225.274L361.548 74.5068L340.791 103.728C342.656 107.25 343.514 111.273 343.26 115.303C343.005 119.334 341.649 123.199 339.357 126.427C337.065 129.654 333.936 132.104 330.353 133.478C326.769 134.852 322.885 135.09 319.176 134.163L253.962 226.008Z" fill="#FA5144"/>
<path d="M384.629 74.5068H361.541V225.029H384.629V74.5068Z" fill="#2F4BA7"/>
<path d="M361.541 74.5068V85.4105L384.629 102.404L384.636 102.409V91.7104L384.629 91.7056L361.541 74.5068Z" fill="#464646"/>
<path d="M361.541 88.4407V93.3945L384.629 110.065V105.402L361.541 88.4407Z" fill="#464646"/>
<path d="M361.541 103.089V117.522L384.629 131.6V119.683L361.541 103.089Z" fill="#464646"/>
<path d="M361.541 119.649V124.544L384.629 138.561V133.666L361.541 119.649Z" fill="#464646"/>
<path d="M361.541 188.021V225.029H384.629V199.382L361.541 188.021Z" fill="#464646"/>
<path d="M388.56 148.422C388.56 148.422 361.585 143.882 368.821 150.747C371.014 152.827 387.644 152.512 387.752 152.46C387.752 152.46 364.088 155.52 370.552 159.436C377.017 163.352 387.521 159.803 387.521 159.803C387.521 159.803 368.244 168.491 372.168 169.47C379.023 171.184 387.175 170.939 387.175 170.939C387.175 170.939 370.899 174.733 372.861 176.079C378.944 180.239 388.907 177.18 388.907 177.18C388.907 177.18 403.105 159.68 388.56 148.422Z" fill="#FA5144"/>
<path d="M261.819 97.5137H216.311V225.798H261.819V97.5137Z" fill="#464646"/>
<path d="M245.701 97.5137H200.194V225.798H245.701V97.5137Z" fill="#F9B141"/>
<path d="M188.81 158.572C190.195 165.075 195.464 169.83 201.723 170.477C209.648 171.292 221.825 171.891 216.803 167.131C214.61 165.05 197.982 165.366 197.872 165.418C197.872 165.418 221.536 162.358 215.072 158.442C208.607 154.526 198.102 158.075 198.102 158.075C198.102 158.075 217.38 149.386 213.455 148.407C206.601 146.694 198.449 146.939 198.449 146.939C198.449 146.939 214.725 143.145 212.763 141.799C209.893 139.829 206.155 139.474 203.013 139.648C197.299 139.961 192.111 143.49 189.763 149.022C188.466 152.008 188.131 155.364 188.81 158.572Z" fill="#FA5144"/>
<path d="M199.938 201.778C199.938 201.778 238.861 202.189 233.253 225.724H200.169L199.938 201.778Z" fill="#2F4BA7"/>
<path d="M218.733 217.172C222.524 214.345 224.961 211.095 224.177 209.913C223.392 208.731 219.684 210.065 215.893 212.893C212.102 215.72 209.665 218.97 210.45 220.152C211.234 221.334 214.943 220 218.733 217.172Z" fill="white"/>
<path d="M218.52 217.231C219.95 216.665 220.715 215.087 220.229 213.707C219.742 212.326 218.189 211.666 216.759 212.233C215.33 212.799 214.565 214.376 215.051 215.757C215.537 217.137 217.091 217.797 218.52 217.231Z" fill="#464646"/>
<path d="M230.875 223.561L251.653 209.12L234.569 213.526L240.11 194.435L225.281 209.233L230.875 223.561Z" fill="#464646"/>
<path d="M202.939 204.96C202.939 204.96 200.169 184.156 204.786 191.009C209.404 197.862 207.788 204.47 207.788 204.47C207.788 204.47 209.404 184.156 212.405 191.743C215.406 199.33 212.867 205.449 212.867 205.449C212.867 205.449 219.1 183.177 219.562 193.946C220.024 204.715 217.715 206.918 217.715 206.918C217.715 206.918 222.794 190.275 223.949 196.393C225.103 202.512 220.255 208.142 220.255 208.142C220.255 208.142 205.941 211.079 202.939 204.96Z" fill="#464646"/>
<path d="M350.697 172.163C353.757 172.163 356.238 169.533 356.238 166.289C356.238 163.045 353.757 160.415 350.697 160.415C347.637 160.415 345.156 163.045 345.156 166.289C345.156 169.533 347.637 172.163 350.697 172.163Z" fill="#464646"/>
<path d="M350.928 168.491C350.928 168.491 337.307 181.219 343.078 182.442C348.85 183.666 351.39 177.547 345.849 176.813C340.308 176.079 331.073 187.093 337.076 191.009C343.078 194.925 346.311 189.051 340.308 188.316C334.305 187.582 326.917 200.309 332.458 203.736C337.999 207.162 340.77 197.372 335.46 196.883C330.15 196.393 320.252 225.609 320.252 225.609" stroke="#464646" stroke-width="2" stroke-miterlimit="10"/>
<path d="M317.611 168.095C317.611 168.095 310.544 179.148 317.082 179.525C323.621 179.902 321.146 173.717 317.611 176.152C314.076 178.588 306.917 190.887 313.589 192.7C320.261 194.514 321.852 186.092 317.082 187.954C312.312 189.817 309.66 211.184 316.905 211.94C324.149 212.696 326.802 202.395 319.906 206.881C313.01 211.367 312.994 222.288 314.596 225.825" stroke="#464646" stroke-width="2" stroke-miterlimit="10"/>
<path d="M317.436 171.093C319.778 171.093 321.677 169.08 321.677 166.597C321.677 164.114 319.778 162.101 317.436 162.101C315.093 162.101 313.194 164.114 313.194 166.597C313.194 169.08 315.093 171.093 317.436 171.093Z" fill="#464646"/>
<path d="M98.0552 215.102C91.1024 205.136 82.4029 194.115 71.8949 188.217C49.3028 175.542 42.4937 208.994 46.0155 225.459C47.3845 231.698 49.9189 237.619 53.4696 242.872C57.0203 248.125 61.5157 252.604 66.6915 256.047C67.9392 256.868 69.2933 257.643 70.7656 257.641C74.5404 257.655 76.3271 252.804 76.4549 248.835C76.911 234.625 68.659 221.065 57.777 212.308C47.9807 204.416 24.9012 190.852 12.1153 194.115C8.4414 195.048 5.51336 197.86 2.98512 200.773C-2.97429 207.651 -7.65827 215.65 -10.8351 224.377C-12.565 229.129 -13.8365 234.387 -12.4803 239.343C-11.0058 244.747 -6.43953 248.971 -1.29588 250.501C5.14645 252.416 13.3801 251.037 16.9409 244.775C21.6497 236.488 18.8987 223.128 17.2326 214.227C13.9017 196.51 7.93417 179.006 1.16135 162.344" stroke="#2F4BA7" stroke-width="2" stroke-miterlimit="10"/>
<path d="M108.304 78.8586C112.679 67.5168 116.977 54.0732 116.148 41.6591C114.361 14.9716 83.5573 26.1524 72.0707 37.786C67.736 42.2253 64.2837 47.5393 61.9167 53.4156C59.5497 59.2919 58.3157 65.6119 58.2875 72.0039C58.2884 73.5399 58.3825 75.1478 59.1715 76.4597C61.1781 79.8338 66.0724 78.9253 69.3642 76.9918C81.146 70.0697 87.7447 55.7158 89.0375 41.4932C90.2082 28.6853 88.8826 1.10434 79.3966 -8.61618C76.6742 -11.4114 72.8254 -12.5727 69.1083 -13.3251C60.3375 -15.093 51.3373 -15.1446 42.553 -13.4772C37.7688 -12.5686 32.8198 -10.991 29.5206 -7.22505C25.9207 -3.1225 24.9326 3.12853 26.4402 8.5054C28.3301 15.2388 33.8518 21.8714 40.8402 21.8175C50.0874 21.7427 59.4649 12.3983 65.8014 6.32145C78.4065 -5.78741 89.4297 -20.1384 99.338 -34.773" stroke="#2F4BA7" stroke-width="2" stroke-miterlimit="10"/>
<path d="M45.859 66.8844C45.859 66.8844 33.9487 67.2321 35.2903 67.2321C36.6319 67.2321 45.859 69.5445 45.859 69.5445C45.859 69.5445 40.66 77.5529 41.316 77.0209C41.972 76.4889 48.8604 69.5515 49.3688 69.9062C49.8772 70.2609 56.4113 69.7288 56.4113 69.7288L48.5389 67.7746L49.5492 60.3052L45.859 66.8844Z" fill="#FA8E5D"/>
<path d="M10.0223 207.926C10.0223 207.926 -1.48864 211.004 -0.183027 210.695C1.12259 210.386 10.6342 210.514 10.6342 210.514C10.6342 210.514 7.4166 219.504 7.93266 218.835C8.44873 218.167 13.5567 209.831 14.133 210.059C14.7094 210.287 20.9459 208.267 20.9459 208.267L12.8351 208.175L12.1002 200.674L10.0223 207.926Z" fill="#FA8E5D"/>
</svg>
