<svg xmlns:x="http://ns.adobe.com/Extensibility/1.0/" xmlns:i="http://ns.adobe.com/AdobeIllustrator/10.0/" xmlns:graph="http://ns.adobe.com/Graphs/1.0/" xmlns="http://www.w3.org/2000/svg" xmlns:xlink="http://www.w3.org/1999/xlink" version="1.1" x="0px" y="0px" viewBox="0 0 64 80" enable-background="new 0 0 64 64" xml:space="preserve"><metadata><sfw xmlns="http://ns.adobe.com/SaveForWeb/1.0/"><slices/><sliceSourceBounds y="-8160" x="-8165" width="16389" height="16384" bottomLeftOrigin="true"/></sfw></metadata><g><path d="M46.143,41.143c-0.996,0-1.946,0.29-2.758,0.828l-4.355-4.355c2.617-3.271,2.617-7.958,0-11.23l4.355-4.356   c0.812,0.538,1.762,0.829,2.758,0.829c1.335,0,2.591-0.52,3.535-1.464c1.949-1.95,1.949-5.122,0-7.071   c-0.944-0.944-2.2-1.464-3.535-1.464c-1.336,0-2.592,0.52-3.536,1.464c-1.707,1.708-1.919,4.352-0.636,6.293l-4.355,4.356   c-1.59-1.274-3.548-1.97-5.615-1.97s-4.025,0.696-5.615,1.971l-4.356-4.356c1.283-1.94,1.071-4.585-0.636-6.293   c-0.944-0.944-2.2-1.464-3.536-1.464s-2.591,0.52-3.536,1.464s-1.464,2.2-1.464,3.536s0.52,2.591,1.464,3.536   s2.2,1.464,3.536,1.464c0.996,0,1.946-0.291,2.757-0.829l4.356,4.356c-2.617,3.272-2.617,7.958,0,11.23l-4.355,4.355   c-0.811-0.538-1.762-0.828-2.757-0.828c-1.335,0-2.591,0.52-3.536,1.464c-1.949,1.949-1.949,5.122,0,7.071   c0.944,0.944,2.2,1.464,3.536,1.464s2.591-0.52,3.536-1.464c1.706-1.707,1.917-4.353,0.635-6.293l4.356-4.355   C27.975,40.305,29.933,41,32,41c2.067,0,4.025-0.695,5.615-1.971l4.355,4.355c-1.282,1.94-1.07,4.586,0.636,6.293   c0.944,0.944,2.2,1.464,3.536,1.464c1.335,0,2.591-0.52,3.535-1.464c1.948-1.949,1.948-5.122,0-7.071   C48.733,41.662,47.478,41.143,46.143,41.143z M44.021,15.736c0.566-0.566,1.32-0.878,2.122-0.878c0.801,0,1.555,0.312,2.121,0.878   c1.169,1.17,1.169,3.073,0,4.243c-1.134,1.134-3.111,1.133-4.243,0C42.852,18.81,42.852,16.906,44.021,15.736z M15.736,19.979   c-0.566-0.567-0.878-1.32-0.878-2.122s0.312-1.555,0.878-2.122c0.567-0.566,1.32-0.878,2.122-0.878s1.555,0.312,2.122,0.878   c1.169,1.17,1.169,3.073,0,4.243C18.847,21.112,16.869,21.112,15.736,19.979z M19.979,48.264c-1.133,1.133-3.11,1.133-4.243,0   c-1.169-1.17-1.169-3.073,0-4.243c0.566-0.566,1.32-0.878,2.122-0.878s1.555,0.312,2.121,0.878   C21.148,45.19,21.148,47.094,19.979,48.264z M27.05,36.95c-2.729-2.729-2.729-7.17,0-9.899c1.322-1.322,3.08-2.05,4.95-2.05   s3.627,0.728,4.95,2.05c2.729,2.729,2.729,7.17,0,9.899C35.628,38.272,33.87,39,32,39C30.13,39,28.373,38.272,27.05,36.95z    M48.264,48.264c-1.134,1.133-3.111,1.133-4.243,0c-1.169-1.17-1.169-3.073,0-4.243c0.566-0.566,1.32-0.878,2.122-0.878   c0.801,0,1.555,0.312,2.121,0.878C49.433,45.19,49.433,47.094,48.264,48.264z"/></g></svg>