<svg xmlns="http://www.w3.org/2000/svg" xmlns:xlink="http://www.w3.org/1999/xlink" version="1.1" x="0px" y="0px" viewBox="0 0 100 125" enable-background="new 0 0 100 100" xml:space="preserve"><path d="M32.8,85.7c-0.6,1.3-2.1,1.6-3.7,0.9c-1.6-0.7-3-2.8-1.3-5c-3.4-2.7-4.2-4.5,0.2-8.5c-0.9-1.8-0.5-3.4,1.1-4.8  c0.4-0.3,0.8-1.1,0.7-1.7c-0.2-3.6,1.1-6.6,2.7-9.7c2-3.8,3-8,3.1-12.3c0.1-2.3,0.2-4.6,0.3-7c0.2-3.1,1.2-5.9,2.7-8.7  c4.3-7.5,10.8-10,19-9.2c5.9,0.5,10.7,3.1,14.6,7.7c7.6,8.9,3.5,19.9-2.1,24.8c-1.5,1.3-3.3,2.4-5,3.6c-2.3,1.6-4.6,3.1-6.9,4.7  c-3.2,2.2-5.6,5.1-7.4,8.5c-0.3,0.5-0.8,1.1-0.7,1.5c0.4,1.5-0.5,2.7-0.8,4c-0.6,2.8-0.9,3.5-3.4,4.4c-0.3,0.1-1.7,1-2.1,1.2  c-0.3,1.5,0.4,3.3-1.8,4.2c-1.4,0.5-2,4.2-4,3.7C36.3,87.3,34.8,86.3,32.8,85.7z M41.3,62.8c-0.3,0.3-0.5,0.6-0.8,0.8  c-0.6,0.5-1.4,1.3-1.9,1.2c-1.8-0.7-0.8-2.4-1-2.7c-1,0.1-2,0.2-3.2,0.3c2.4,6,7.4,8.9,12.9,7.5c-0.5-1-0.5-2.4-2.3-1.8  c-1.1,0.3-1.5-0.5-1.4-1.5c0.1-0.8,0.5-1.6,0.8-2.3c3-5.6,5.6-11.4,9.7-16.4c-1-1.1-1.9-2.1-2.9-3.1c-1.1,0.1-2.2,0.2-3.2,0.2  c-0.1,0.3-0.3,0.4-0.3,0.6c-0.1,0.4-0.1,0.7-0.1,1.1C47.2,52.8,45.5,58.4,41.3,62.8L41.3,62.8z M50.9,42.8c0.4-1.1,0.7-2.1,1.2-3  c0.8-1.6,2.4-2.2,3.7-1.5c1.2,0.6,1.4,2.1,0.3,3.7c-0.6,0.9-1.4,1.6-2.1,2.4c2,1.8,2,1.8,4.1,0.7c0.8-0.4,1.7-0.9,2.6-0.9  c0.8,0,1.9,0.4,2.3,1.1c0.7,0.9,0.1,2.1-0.8,2.6c-1,0.6-2.2,1.1-3.3,1c-1.5-0.1-2.5,0.5-3.3,1.5c-0.6,0.8-1.3,1.6-1.8,2.4  c-2.4,4.2-4.7,8.5-7,12.7c0.7,0.7,1.3,1.3,1.9,1.9c0.2-0.3,0.5-0.4,0.6-0.7c1.9-4.4,5.2-7.4,8.9-10.1c2.4-1.7,4.9-3.3,7.4-5  c2.4-1.6,4.2-3.7,5.4-6.2c1.9-3.9,2.4-8.1,0.6-12.1c-3.8-8-10.3-11-18.6-10.4c-4.3,0.3-7.6,2.4-10.2,6c-2.7,3.8-3.3,8-3.6,12.4  c-0.2,3.1-0.3,6.2-0.9,9.1c-0.7,3.2-2,6.3-3.1,9.6c1.3,0.1,2.8,0.2,4.4,0.3c4.4-4.5,5.2-10.5,5.8-16.4c-3.2-2.8-3.8-5-1.7-6.1  c2.1-1.1,3.6,2.6,4.7,4.8C49.1,42.8,50,42.8,50.9,42.8z M31.2,70.1c3.9,3.1,4.3,3.1,4.6,4.9c-0.4,1-3-1.1-4.8-1.9  c-0.3,0.9-0.6,1.7-0.9,2.4c-0.3,0.8-1.2,1.2-1.7,2.1c1.9,3.2,8.2,7.2,9.5,6.3c0.4-0.8,0.7-1.4,1-1.9c-3.4-0.4-4.9-3.9-3.6-4.2  c1.3-0.3,3.2,1.8,5.1,2.4c0.1-2.2,1.4-3,3.2-3.5c1.3-0.4,2.7-0.8,2.8-2.2c-3.1-1-6-1.7-8.8-2.9c-2.9-1.2-4-2.8-5.2-5.9  C32.1,67.7,32.2,68.9,31.2,70.1z M27.7,20.8c-1,0.2-1.4,1-1.2,1.9c0.4,1.7,1.1,3.2,2.2,4.6c0.8,1,2.3,3,3.7,3.1  c0.6,0,1.2-0.2,1.5-0.8c0.6-1-0.9-2.7-1.4-3.6c-0.8-1.4-1.6-2.7-2.5-4c-0.3-0.5-0.9-1-1.5-1.1C28.2,20.8,27.9,20.8,27.7,20.8z   M82.7,30.3c-0.3,0.2-0.6,1-0.5,1.4c0.2,0.4,0.8,0.9,1.3,0.8c4-0.1,11.4-1.4,11.5-3C95.4,25.3,84.4,29.4,82.7,30.3z M25,42.5  c1.9-0.4,5.3-0.3,6-2.6c-0.2-1.6-2-0.8-3.4-0.7c-1.3,0.2-2.6,0.3-3.8,0.4c-1.3,0.1-3.2,0-4.2,1c-0.3,0.3-0.5,0.6-0.6,1  c-0.1,0.6,0.5,1.2,1.1,1.4c0.4,0.1,0.8,0.2,1.2,0.2C22.5,43.2,23.9,42.7,25,42.5z M90.2,48.5c-1.1-2-6.2-3.4-8.3-2.4  c-1,0.5-1.2,1.5-0.4,2.2c0.5,0.4,1.1,0.7,1.7,0.9c2.2,0.7,6.9,3.2,7.3,2S90.5,49.1,90.2,48.5z M72.3,60.6c-1.4-0.3-2.3,0.6-1.6,1.9  c0.8,1.6,1.7,3.1,2.7,4.5c0.4,0.5,1.2,0.9,1.8,1.1c1.3,0.4,2-0.1,2-1.4C77.3,64.5,74.4,61,72.3,60.6z M40.6,20.8  c1.8,1.1,0.6-4,0.5-4.5c-0.4-1.5-1-3.7-2.3-4.7c-0.8-0.6-1.7-0.3-1.8,0.8c0,0.4,0,0.9,0.1,1.4c0.4,1.4,0.9,2.6,1.6,3.9  c0.4,0.8,1,2.4,1.7,3.1C40.5,20.6,40.6,20.7,40.6,20.8z M41.4,64.1c0.3,0.3,0.9,0.6,1.3,0.5c0.2,0,0.7-0.8,0.6-0.9  c-0.2-0.4-0.7-0.7-1.1-0.9C42,62.7,40.8,63.5,41.4,64.1z"/></svg>