<svg xmlns="http://www.w3.org/2000/svg" xmlns:xlink="http://www.w3.org/1999/xlink" version="1.1" x="0px" y="0px" viewBox="0 0 100 125" style="enable-background:new 0 0 100 100;" xml:space="preserve"><style type="text/css">
	.st0{fill:none;stroke:#000000;stroke-width:3;stroke-linecap:round;stroke-linejoin:round;stroke-miterlimit:10;}
</style><path class="st0" d="M50,14.3h33.3v78.6c0,0-40.1,0.2-47.8,0c-7.6-0.2-19-3.6-18.8-12.2s17.7-8.2,17.7-8.2S49,73.1,49.2,78  c0.3,6.9-14.7,5.8-14.7,5.8s-9,0-9-2.9s8.8-2.9,8.8-2.9"/><path class="st0" d="M49.2,79.6V8.9c0,0-2.6-3.9-16.6-3.9C18.4,5,16.7,8,16.7,8v74.4"/><line class="st0" x1="24.2" y1="16.6" x2="24.2" y2="47.7"/></svg>