<svg xmlns="http://www.w3.org/2000/svg" version="1.1" viewBox="-5.0 -10.0 110.0 135.0">
 <path d="m42.094 2.5h18.215l0.41016 11.461c1.2578 0.37109 2.4844 0.80859 3.668 1.2969 1.207 0.50391 2.3828 1.0625 3.5156 1.6758l8.3945-7.8125 14.582 14.582-7.8125 8.3906c0.61328 1.1367 1.1758 2.3086 1.6758 3.5195 0.49219 1.1875 0.92578 2.4141 1.2969 3.6641l11.461 0.41016v20.617l-11.461 0.41016c-0.37109 1.2578-0.80859 2.4844-1.2969 3.668-0.50391 1.207-1.0625 2.3828-1.6758 3.5156l7.8125 8.3945-14.582 14.582-8.3906-7.8125c-1.1367 0.61328-2.3086 1.1758-3.5195 1.6758-1.1875 0.49219-2.4141 0.92578-3.6641 1.2969l-0.41016 11.461h-20.617l-0.41016-11.461c-1.2578-0.37109-2.4844-0.80859-3.668-1.2969-1.207-0.50391-2.3828-1.0625-3.5156-1.6758l-8.3945 7.8125-14.582-14.582 7.8125-8.3906c-0.61328-1.1367-1.1758-2.3086-1.6758-3.5195-0.49219-1.1875-0.92578-2.4141-1.2969-3.6641l-11.461-0.41016v-20.617l11.461-0.41016c0.37109-1.2578 0.80859-2.4844 1.2969-3.668 0.50391-1.207 1.0625-2.3828 1.6758-3.5156l-7.8125-8.3945 14.582-14.582 8.3906 7.8125c1.1367-0.61328 2.3086-1.1758 3.5195-1.6758 1.1875-0.49219 2.4141-0.92578 3.6641-1.2969l0.41016-11.461zm7.9062 25.469c6.082 0 11.59 2.4688 15.578 6.4531 3.9883 3.9883 6.4531 9.4961 6.4531 15.578s-2.4688 11.59-6.4531 15.578c-3.9883 3.9883-9.4961 6.4531-15.578 6.4531s-11.59-2.4688-15.578-6.4531c-3.9883-3.9883-6.4531-9.4961-6.4531-15.578s2.4688-11.59 6.4531-15.578c3.9883-3.9883 9.4961-6.4531 15.578-6.4531zm12.047 9.9883c-3.082-3.082-7.3398-4.9883-12.047-4.9883-4.7031 0-8.9648 1.9062-12.047 4.9883s-4.9883 7.3398-4.9883 12.047c0 4.7031 1.9062 8.9648 4.9883 12.047s7.3398 4.9883 12.047 4.9883c4.7031 0 8.9648-1.9062 12.047-4.9883s4.9883-7.3398 4.9883-12.047c0-4.7031-1.9062-8.9648-4.9883-12.047zm-6.543-30.453h-11.004l-0.37109 10.359-1.8359 0.44531c-1.6406 0.39844-3.2383 0.92188-4.7812 1.5586-1.543 0.64062-3.0352 1.4023-4.4688 2.2734l-1.6133 0.98438-7.5938-7.0703-7.7773 7.7773 7.0703 7.5938-0.98438 1.6172c-0.87109 1.4297-1.6367 2.9297-2.2773 4.4727-0.64063 1.5547-1.1641 3.1484-1.5586 4.7734l-0.44531 1.8359-10.359 0.37109v11.004l10.359 0.37109 0.44531 1.8359c0.39844 1.6406 0.92188 3.2383 1.5586 4.7812 0.64062 1.543 1.4023 3.0352 2.2734 4.4688l0.98438 1.6133-7.0703 7.5938 7.7773 7.7773 7.5938-7.0703 1.6172 0.98438c1.4297 0.87109 2.9297 1.6367 4.4727 2.2773 1.5547 0.64063 3.1484 1.1641 4.7734 1.5586l1.8359 0.44531 0.37109 10.359h11.004l0.37109-10.359 1.8359-0.44531c1.6406-0.39844 3.2383-0.92188 4.7812-1.5586 1.543-0.64062 3.0352-1.4023 4.4688-2.2734l1.6133-0.98438 7.5938 7.0703 7.7773-7.7773-7.0703-7.5938 0.98438-1.6172c0.87109-1.4297 1.6367-2.9297 2.2773-4.4727 0.64063-1.5547 1.1641-3.1484 1.5586-4.7734l0.44531-1.8359 10.359-0.37109v-11.004l-10.359-0.37109-0.44531-1.8359c-0.39844-1.6406-0.92188-3.2383-1.5586-4.7812-0.64062-1.543-1.4023-3.0352-2.2734-4.4688l-0.98438-1.6133 7.0703-7.5938-7.7773-7.7773-7.5938 7.0703-1.6172-0.98438c-1.4297-0.87109-2.9297-1.6367-4.4727-2.2773-1.5547-0.64063-3.1484-1.1641-4.7734-1.5586l-1.8359-0.44531z"/></svg>